<?xml version="1.0" standalone="no"?>
<!DOCTYPE svg PUBLIC "-//W3C//DTD SVG 20010904//EN"
 "http://www.w3.org/TR/2001/REC-SVG-20010904/DTD/svg10.dtd">
<svg version="1.0" xmlns="http://www.w3.org/2000/svg"
 width="1120.000000pt" height="1120.000000pt" viewBox="0 0 1120.000000 1120.000000"
 preserveAspectRatio="xMidYMid meet">

<g transform="translate(0.000000,1120.000000) scale(0.100000,-0.100000)"
fill="#000000" stroke="none">
<path d="M0 5600 l0 -5600 5600 0 5600 0 0 5600 0 5600 -5600 0 -5600 0 0
-5600z m5305 1020 c95 -14 204 -68 249 -124 62 -75 90 -149 94 -251 10 -240
-125 -479 -328 -578 -41 -21 -89 -40 -106 -43 -31 -6 -33 -4 -100 107 -38 63
-70 116 -72 120 -2 4 27 17 63 30 129 45 200 143 200 275 0 62 -3 75 -29 108
-55 73 -88 80 -368 84 l-248 4 -67 100 c-66 97 -68 99 -76 71 -4 -15 -21 -77
-37 -138 -24 -92 -131 -490 -147 -547 -5 -17 13 -18 281 -18 l287 0 74 -115
c41 -63 75 -116 75 -118 0 -3 -18 -7 -40 -11 -44 -7 -52 -21 -17 -31 58 -18
92 -65 367 -506 155 -248 284 -458 287 -465 4 -12 -27 -14 -203 -12 l-209 3
-217 360 c-119 198 -252 417 -295 487 l-78 128 -196 0 -197 0 -21 -82 c-12
-46 -40 -146 -61 -223 -21 -77 -46 -169 -55 -205 -9 -36 -21 -82 -26 -102
l-10 -38 -180 0 c-167 0 -180 1 -175 18 13 45 133 476 176 637 27 99 85 311
128 470 44 160 97 353 117 430 21 77 41 149 45 160 8 21 11 21 527 24 332 1
544 -2 588 -9z m1965 -61 c-41 -39 -116 -109 -166 -155 l-91 -84 -619 2 -619
3 -8 55 c-11 78 -51 158 -104 207 l-46 43 864 0 864 -1 -75 -70z m-790 -393
c0 -15 -64 -255 -175 -661 -140 -513 -165 -605 -165 -610 0 -3 -81 -5 -180 -5
-99 0 -180 3 -180 8 0 4 25 95 55 202 30 107 89 321 130 475 42 154 90 330
106 390 17 61 37 134 45 163 l15 52 174 0 c146 0 175 -2 175 -14z"/>
</g>
</svg>
